<?xml version="1.0" encoding="UTF-8"?>
<svg id="Layer_2" xmlns="http://www.w3.org/2000/svg" version="1.1" viewBox="0 0 174 174">
  <!-- Generator: Adobe Illustrator 29.3.1, SVG Export Plug-In . SVG Version: 2.1.0 Build 151)  -->
  <defs>
    <style>
      .st0 {
        fill: #fff;
      }
    </style>
  </defs>
  <g id="Layer_1-2">
    <g>
      <path class="st0" d="M136.8,66.4v-13.5H37.3v13.5h46.6v9.7l-46.6,37.6v16.2l46.6-37.6v7.9c0,8.8,2.6,16,7.5,20.9,4.7,4.6,11.3,7.1,19.2,7.1h.3c17-.1,26.3-10.4,26.3-29.1v-8.4h-13v7.8c-.2,11.5-4.1,16.2-13.6,16.2s-13.7-4.7-13.7-16.2v-31.9h39.8v-.2Z"/>
      <path class="st0" d="M87,0C39,0,0,39,0,87s39,87,87,87,87-39,87-87S135,0,87,0ZM87,161.4c-41,0-74.4-33.4-74.4-74.4S46,12.6,87,12.6s74.4,33.4,74.4,74.4-33.4,74.4-74.4,74.4h0Z"/>
    </g>
  </g>
</svg>